<svg width="150" height="40" viewBox="0 0 150 40" fill="none" xmlns="http://www.w3.org/2000/svg">
<path d="M17.2809 10.8621C17.2727 10.9764 17.196 11.0584 17.1033 11.0516C17.0154 11.0457 16.9521 10.9739 16.9578 10.8863C16.966 10.7508 17.0188 10.69 17.1224 10.6943C17.2363 10.6994 17.2891 10.7546 17.2809 10.8621ZM17.2787 9.7467C17.2818 9.7297 17.3164 9.71823 17.3363 9.70378C17.368 9.75392 17.3991 9.80406 17.4477 9.8797C17.3368 9.8525 17.2631 9.83933 17.2787 9.7467ZM17.7166 10.3123C17.7236 10.3314 17.6681 10.3943 17.6322 10.4036C17.5429 10.4274 17.4477 10.4338 17.4195 10.2923C17.4819 10.2498 17.5321 10.215 17.6079 10.1627C17.6478 10.2137 17.6958 10.2579 17.7166 10.3123ZM17.7673 9.2079C17.7916 9.25464 17.8141 9.27971 17.8145 9.30606C17.815 9.32306 17.7738 9.35875 17.7682 9.35577C17.7418 9.34133 17.708 9.31881 17.7036 9.29501C17.7002 9.27589 17.7353 9.24954 17.7673 9.2079ZM17.9245 9.63792C17.9224 9.66129 17.8873 9.68254 17.8526 9.71951C17.8292 9.67701 17.7994 9.64812 17.8041 9.62645C17.8098 9.60393 17.8487 9.57461 17.8721 9.57546C17.8916 9.57588 17.9263 9.61667 17.9245 9.63792ZM17.9141 11.1413C17.9029 11.1285 17.8812 11.1154 17.8817 11.1022C17.8825 11.0831 17.8977 11.0635 17.9133 11.03C17.9367 11.0606 17.9592 11.0784 17.9562 11.0873C17.9492 11.1077 17.9289 11.1234 17.9141 11.1413ZM18.0926 9.22787C18.0961 9.29161 18.1056 9.31923 18.0965 9.329C18.0649 9.36002 18.0268 9.38424 17.9817 9.41866C17.9102 9.26739 18.022 9.28864 18.0926 9.22787ZM18.0042 10.4155C17.944 10.3242 17.9458 10.2587 18.032 10.1729C18.0761 10.2213 18.1069 10.2553 18.1537 10.3067C18.1 10.3458 18.0545 10.3786 18.0042 10.4155ZM17.3991 12.0357C17.4004 11.9932 17.4013 11.9512 17.4026 11.9087H17.478C17.4823 11.9469 17.4927 11.986 17.4871 12.0221C17.4858 12.0311 17.4299 12.0315 17.3991 12.0357ZM17.0193 10.4555C17.0288 10.4444 17.0561 10.4474 17.0756 10.4444V10.6161C16.9968 10.5545 16.9721 10.5099 17.0193 10.4555ZM18.7012 8.71287C18.7016 8.71202 18.702 8.71117 18.702 8.71032C18.7042 8.71117 18.7064 8.71202 18.7081 8.7133C18.7077 8.68653 18.6994 8.65678 18.7098 8.63469C18.7414 8.56627 18.8077 8.55098 18.867 8.58157C18.8995 8.59814 18.9338 8.65848 18.9281 8.69247C18.913 8.77661 18.8402 8.76386 18.777 8.74644C18.7527 8.74007 18.731 8.72562 18.7081 8.7133C18.7085 8.71415 18.7085 8.715 18.7085 8.71542L18.702 8.71032C18.702 8.71032 18.7085 8.71542 18.7081 8.71542C18.7059 8.71457 18.7033 8.71372 18.7012 8.71287C18.6912 8.74389 18.6799 8.77576 18.6552 8.85097C18.6314 8.77533 18.6197 8.73709 18.6015 8.67888C18.6513 8.69587 18.6773 8.7048 18.7012 8.71287ZM18.9485 7.41602C18.9333 7.52225 18.8917 7.56899 18.7696 7.51672C18.7986 7.40199 18.8532 7.37947 18.9485 7.41602ZM18.7103 9.04686C18.696 9.04813 18.6622 9.01159 18.6617 8.99204C18.6613 8.90876 18.7206 8.92193 18.7765 8.92236C18.7925 8.99204 18.7787 9.03878 18.7103 9.04686ZM16.7798 10.393C16.788 10.3424 16.7966 10.2927 16.8049 10.2426C16.8395 10.2545 16.898 10.2587 16.9049 10.2791C16.9292 10.3514 16.8681 10.3756 16.7798 10.393ZM16.4714 11.1893C16.396 11.0631 16.4202 11.013 16.5485 10.9543C16.5186 11.0453 16.5012 11.0971 16.4714 11.1893ZM15.9044 10.4368C15.8979 10.4032 15.8914 10.3696 15.8849 10.3361L15.9308 10.3305C15.9343 10.3645 15.9373 10.3981 15.9403 10.4321C15.9286 10.4338 15.9165 10.4351 15.9044 10.4368ZM15.832 8.75834C15.8602 8.76811 15.8866 8.78128 15.9135 8.79361C15.9048 8.80763 15.897 8.82123 15.8884 8.83525C15.8637 8.81953 15.8385 8.80465 15.8147 8.78723C15.8134 8.78638 15.8303 8.75749 15.832 8.75834ZM15.6116 10.9717C15.5895 10.9675 15.5583 10.9288 15.5587 10.9063C15.5592 10.8868 15.6003 10.8523 15.6215 10.8532C15.6458 10.8549 15.6679 10.8885 15.7043 10.9199C15.6627 10.945 15.6337 10.976 15.6116 10.9717ZM14.7496 11.5513C14.7228 11.5046 14.6942 11.4744 14.6912 11.4421C14.6899 11.4268 14.7492 11.3869 14.7587 11.3928C14.7886 11.412 14.8163 11.4443 14.828 11.477C14.8324 11.4884 14.7873 11.5165 14.7496 11.5513ZM17.1605 9.55761C17.1016 9.60138 17.0782 9.6188 17.0552 9.63665C17.0539 9.63452 17.0518 9.6324 17.0505 9.63112L16.9539 9.75307L15.7883 8.48129L15.4128 9.41016C15.4201 9.40889 15.4279 9.40761 15.437 9.40761C15.5332 9.40676 15.6012 9.4807 15.5968 9.58311C15.5938 9.66257 15.5236 9.73693 15.4561 9.73268C15.4045 9.72928 15.3513 9.67616 15.3305 9.61285L15.2646 9.77602C15.2997 9.80406 15.3365 9.83338 15.3816 9.8695C15.3157 9.8967 15.2568 9.92049 15.1962 9.94514L13.2653 14.717L13.947 13.817C13.9405 13.8098 13.934 13.8038 13.928 13.7966C13.8833 13.7448 13.873 13.687 13.9747 13.5897C14.0016 13.6211 14.0267 13.65 14.0518 13.6785L14.9558 12.4845C14.9224 12.4466 14.9008 12.3973 14.9086 12.3527C14.9207 12.2864 14.9398 12.2134 15.0338 12.2117C15.0723 12.2112 15.1074 12.2244 15.1356 12.2469L16.1673 10.8842L16.8785 11.6601C16.9041 11.6244 16.9413 11.6036 16.992 11.6015C17.0907 11.5976 17.1969 11.6253 17.2345 11.7281C17.2558 11.7876 17.2532 11.8658 17.2332 11.9274C17.2229 11.9597 17.2099 11.9852 17.1947 12.0043L17.5546 12.3965L18.0852 10.97C18.0618 10.945 18.0376 10.9203 18.0142 10.8957C18.0813 10.798 18.119 10.7567 18.1641 10.7597L18.4006 10.124C18.401 10.0301 18.414 9.93536 18.4296 9.84273C18.4421 9.77219 18.4863 9.72035 18.5561 9.70506L19.1789 8.033C19.1737 8.0279 19.1681 8.0228 19.1633 8.01855C19.1733 8.00708 19.185 7.99391 19.1993 7.97819L19.3565 7.55582C19.3569 7.53924 19.3578 7.52225 19.3582 7.50567C19.3639 7.50567 19.3691 7.5061 19.3751 7.5061L19.6839 6.67581C19.6623 6.65286 19.6398 6.62949 19.6289 6.60187C19.6233 6.587 19.661 6.55641 19.6961 6.51094C19.7073 6.52964 19.7177 6.54493 19.7268 6.5598L19.8979 6.10089C19.8806 6.10132 19.8633 6.09792 19.8472 6.08984L19.3223 6.75399C19.3595 6.74082 19.3994 6.7268 19.4505 6.70853C19.4375 6.8513 19.3656 6.8275 19.3011 6.81858C19.2985 6.80966 19.2954 6.80031 19.2933 6.79139L17.1206 9.54189C17.1315 9.54614 17.1449 9.55209 17.1605 9.55761Z" fill="#3BB4B4"/>
<path d="M5.2207 11.7441C5.19836 11.7539 5.16656 11.7783 5.15582 11.7707C5.1309 11.753 5.11586 11.7198 5.09695 11.6927C5.11801 11.6786 5.13906 11.652 5.15883 11.6529C5.19277 11.6542 5.22586 11.6732 5.25894 11.6848C5.24605 11.7047 5.23316 11.7246 5.2207 11.7441ZM4.62 10.635C4.60066 10.6102 4.57273 10.5885 4.565 10.5601C4.56113 10.5468 4.59379 10.522 4.62301 10.4865C4.64664 10.5304 4.66984 10.5566 4.67242 10.5854C4.67371 10.6 4.63891 10.6182 4.62 10.635ZM3.01383 11.5111C2.99707 11.5053 2.97902 11.4854 2.9743 11.4676C2.97086 11.4543 2.98719 11.4353 3.00223 11.4007C3.02629 11.4353 3.04434 11.4543 3.05164 11.4769C3.05379 11.484 3.02285 11.5137 3.01383 11.5111ZM2.10633 9.82895C2.08828 9.81565 2.07582 9.79261 2.06723 9.7709C2.06551 9.76647 2.09644 9.73899 2.10633 9.74209C2.12137 9.74741 2.13125 9.76957 2.15746 9.80236C2.13812 9.81299 2.11406 9.83338 2.10633 9.82895ZM6.22359 14.1618C6.2064 14.1747 6.18406 14.188 6.16773 14.2008C6.14668 14.1685 6.11445 14.1379 6.10844 14.1029C6.10586 14.0847 6.1398 14.0599 6.1716 14.0262L4.12973 8.72202L3.59992 9.32954C3.60766 9.34284 3.61453 9.35657 3.6184 9.36898C3.66223 9.51344 3.62871 9.57681 3.47445 9.67873C3.43922 9.64017 3.41301 9.60207 3.3941 9.56484L2.97344 10.0479L2.81445 9.83604C2.78781 9.84357 2.76289 9.8449 2.75473 9.83604C2.69543 9.77577 2.60691 9.72659 2.60476 9.59232C2.61551 9.59365 2.62453 9.59498 2.63441 9.59675L0.663867 6.973C0.664726 6.99116 0.665586 7.00845 0.666015 7.02573C0.666445 7.09131 0.657851 7.15734 0.580508 7.1755C0.513906 7.1919 0.407344 7.11923 0.386289 7.04655C0.364375 6.97122 0.401758 6.92248 0.463203 6.89323C0.49457 6.87817 0.528945 6.86664 0.573203 6.85246L0 6.08984L2.37789 12.805L3.75375 11.2275L6.63265 15.2245L6.22359 14.1618Z" fill="#3BB4B4"/>
<path d="M10.9346 24.7792C10.9919 24.8531 11.037 24.8935 11.0535 24.9432C11.06 24.9626 11.0014 25.0268 10.9684 25.0303C10.9003 25.0382 10.8426 24.9942 10.8478 24.9177C10.8499 24.8816 10.8894 24.8478 10.9346 24.7792ZM9.47741 24.7889C9.45614 24.7682 9.43531 24.7475 9.41447 24.7264C9.43227 24.7093 9.44833 24.6802 9.46786 24.6785C9.48479 24.6763 9.50563 24.7031 9.53471 24.7251C9.5091 24.7532 9.49304 24.7713 9.47741 24.7889ZM9.21871 25.0171C9.19266 24.9828 9.15273 24.9507 9.14535 24.9124C9.14057 24.8869 9.18355 24.8526 9.22435 24.7959C9.25907 24.8597 9.29597 24.8979 9.29597 24.9357C9.29597 24.963 9.24605 24.9898 9.21871 25.0171ZM8.96695 25.8412C8.92701 25.7682 8.881 25.7207 8.89011 25.6925C8.90444 25.6494 8.95783 25.6204 8.99473 25.5857C9.01643 25.6253 9.0555 25.6648 9.05506 25.704C9.05463 25.7396 9.01165 25.7752 8.96695 25.8412ZM8.58844 22.4441C8.5103 22.4432 8.45127 22.3694 8.45387 22.2814C8.45604 22.2018 8.53027 22.1249 8.60059 22.1297C8.67047 22.1337 8.72343 22.2137 8.71649 22.3069C8.70997 22.3865 8.67829 22.4454 8.58844 22.4441ZM8.50423 22.6886C8.49685 22.693 8.46299 22.6693 8.46386 22.6605C8.46603 22.6363 8.47992 22.6134 8.48903 22.5897C8.50943 22.5989 8.52984 22.6081 8.5676 22.6253C8.53765 22.6574 8.52376 22.6794 8.50423 22.6886ZM6.19888 24.9586C6.24445 24.9648 6.28526 25.0083 6.36252 25.0562C6.28656 25.1134 6.24358 25.1688 6.19584 25.1732C6.16241 25.1767 6.09904 25.1169 6.08992 25.076C6.0743 25.0056 6.12508 24.9489 6.19888 24.9586ZM6.61255 24.4749C6.62166 24.4709 6.64684 24.5043 6.67809 24.5329C6.64206 24.5584 6.62036 24.5835 6.59431 24.5879C6.58303 24.5901 6.54743 24.5461 6.55177 24.5338C6.56132 24.5092 6.58737 24.4854 6.61255 24.4749ZM6.07082 24.5826C6.06475 24.6011 6.03523 24.6112 6.01613 24.6248C6.00615 24.6077 5.98662 24.5888 5.98879 24.5738C5.99226 24.5523 6.01222 24.5329 6.04044 24.4894C6.05824 24.5391 6.0769 24.565 6.07082 24.5826ZM5.79693 17.1161C5.77783 17.1065 5.7648 17.084 5.74961 17.0669C5.76263 17.0546 5.78 17.0299 5.78911 17.0326C5.80951 17.0383 5.82644 17.0581 5.85336 17.0788C5.82557 17.0977 5.80474 17.1205 5.79693 17.1161ZM6.04087 23.9687C6.05433 24.0057 6.06865 24.0281 6.06822 24.0505C6.06779 24.0624 6.04218 24.0738 6.02829 24.0853C6.01613 24.065 5.99747 24.0461 5.99313 24.0241C5.99096 24.0136 6.01526 23.9973 6.04087 23.9687ZM7.35307 26.0377C7.37391 26.0544 7.38866 26.0663 7.40342 26.0782L7.35915 26.131C7.34569 26.1178 7.32355 26.1055 7.32138 26.0896C7.31921 26.076 7.33918 26.0593 7.35307 26.0377ZM5.69318 20.686C5.67582 20.664 5.65195 20.6433 5.65542 20.6363C5.66497 20.6174 5.6858 20.6042 5.70186 20.5888C5.71141 20.6051 5.72791 20.6214 5.72834 20.6376C5.72834 20.6513 5.70924 20.6658 5.69318 20.686ZM5.59769 20.1038C5.59421 20.0959 5.62243 20.0642 5.63675 20.0633C5.65759 20.0624 5.67973 20.0796 5.7214 20.0989C5.68233 20.1302 5.66236 20.1583 5.64413 20.157C5.62634 20.1557 5.60593 20.1258 5.59769 20.1038ZM5.51304 20.4639C5.49959 20.4688 5.44533 20.4204 5.44793 20.4024C5.45358 20.3681 5.48092 20.3201 5.50957 20.3109C5.53562 20.3017 5.57512 20.3364 5.64066 20.3663C5.5825 20.4129 5.55168 20.4481 5.51304 20.4639ZM5.48613 24.0514C5.52259 23.9881 5.55341 23.9349 5.59378 23.8641C5.67018 24.0466 5.6641 24.0558 5.48613 24.0514ZM5.46747 23.7678C5.42449 23.8434 5.3672 23.8293 5.3099 23.7884C5.30556 23.7805 5.29861 23.7717 5.30035 23.7691C5.33638 23.7123 5.37588 23.6591 5.4501 23.7119C5.46356 23.7211 5.47441 23.7559 5.46747 23.7678ZM5.25781 22.8329C5.24956 22.8716 5.19791 22.9204 5.15971 22.927C5.12238 22.9331 5.0577 22.9006 5.04121 22.8667C5.02602 22.8359 5.04729 22.7717 5.07376 22.7383C5.10241 22.7018 5.15493 22.6842 5.22656 22.6407C5.24262 22.7247 5.26866 22.7832 5.25781 22.8329ZM5.00301 20.9353C5.04902 20.9591 5.0959 20.982 5.13974 21.0092C5.14278 21.011 5.12238 21.0602 5.12064 21.0598C5.07116 21.0453 5.02211 21.0277 4.97349 21.0101C4.98304 20.985 4.99303 20.96 5.00301 20.9353ZM4.8793 20.3632C4.8793 20.325 4.878 20.2867 4.88104 20.2485C4.88147 20.2441 4.91316 20.237 4.91359 20.2383C4.92965 20.2748 4.94311 20.3118 4.957 20.3487C4.93139 20.354 4.90491 20.3584 4.8793 20.3632ZM4.9392 17.9103C5.01951 17.9776 5.01994 18.0295 4.9392 18.1183V17.9103ZM5.21744 22.204C5.23046 22.2234 5.24652 22.2414 5.25477 22.2621C5.25607 22.2665 5.22525 22.2933 5.21267 22.2906C5.19878 22.2876 5.18923 22.2638 5.1736 22.244C5.19053 22.2282 5.20398 22.2163 5.21744 22.204ZM5.49959 18.2247C5.53041 18.2467 5.56123 18.2683 5.60811 18.3013C5.56904 18.3338 5.54343 18.3707 5.52129 18.3685C5.49525 18.3659 5.45444 18.3325 5.45141 18.3087C5.44837 18.2832 5.48179 18.2524 5.49959 18.2247ZM3.92174 18.8751C3.88311 18.8742 3.81843 18.8131 3.81626 18.7753C3.81235 18.7256 3.85837 18.6728 3.90394 18.5783C3.96211 18.6583 4.00725 18.6957 4.0181 18.7414C4.03547 18.8127 3.99293 18.8778 3.92174 18.8751ZM3.52457 23.2788C3.62223 23.306 3.6843 23.3667 3.69689 23.4714C3.70123 23.5602 3.60617 23.6816 3.51111 23.7088C3.41822 23.7361 3.35267 23.7009 3.29538 23.5879C3.26022 23.518 3.22202 23.4481 3.19901 23.3737C3.18599 23.3333 3.18816 23.2752 3.20943 23.2418C3.22332 23.2198 3.28496 23.2185 3.32229 23.2251C3.39087 23.2361 3.45728 23.2598 3.52457 23.2788ZM3.63569 23.0686C3.63178 23.1095 3.60313 23.1482 3.57275 23.2154C3.52847 23.1583 3.48029 23.1209 3.4868 23.1015C3.49982 23.062 3.5428 23.0325 3.57275 22.9991C3.59532 23.0224 3.63699 23.0474 3.63569 23.0686ZM3.51371 22.4745C3.7238 22.4327 3.75462 22.4441 3.81583 22.5593C3.86184 22.6464 3.84968 22.7251 3.78371 22.7915C3.7212 22.8548 3.64524 22.8544 3.57275 22.8069C3.44122 22.7194 3.48463 22.6011 3.51371 22.4745ZM3.87833 23.8021C3.91523 23.8227 3.94518 23.8561 3.99336 23.8988C3.94301 23.9335 3.91219 23.9546 3.88181 23.9758C3.85967 23.9384 3.82972 23.9032 3.81973 23.8627C3.81626 23.8474 3.87095 23.7981 3.87833 23.8021ZM4.05457 25.4362C4.09624 25.6063 4.04719 25.7554 3.92304 25.9062C3.75462 25.7924 3.72684 25.627 3.69602 25.4718C3.67866 25.3812 3.77459 25.2853 3.85576 25.2765C3.93823 25.2673 4.02939 25.3341 4.05457 25.4362ZM3.82798 28.8649C3.76721 28.7721 3.83015 28.6921 3.94822 28.6274C3.9977 28.7079 4.03937 28.7765 4.08148 28.8451C3.98511 28.933 3.89005 28.9599 3.82798 28.8649ZM4.24339 28.9339C4.25511 28.9286 4.28332 28.9585 4.32022 28.9832C4.28028 29.0139 4.25771 29.0408 4.23036 29.0482C4.21691 29.0518 4.19434 29.017 4.17611 28.9994C4.19781 28.9766 4.21647 28.9467 4.24339 28.9339ZM4.32326 28.2321C4.3493 28.2448 4.38576 28.2699 4.38706 28.2932C4.3888 28.3165 4.35364 28.3425 4.31848 28.3873C4.29548 28.3372 4.27334 28.3095 4.27421 28.2835C4.27464 28.2646 4.31544 28.2281 4.32326 28.2321ZM4.41528 29.7149C4.41875 29.7347 4.39748 29.7584 4.38706 29.7809C4.37231 29.7901 4.35711 29.7985 4.34192 29.8077C4.3328 29.7817 4.31327 29.754 4.31805 29.7312C4.32369 29.7048 4.3506 29.6832 4.36796 29.6604C4.38489 29.6784 4.41224 29.6942 4.41528 29.7149ZM4.57328 27.1428C4.6015 27.1978 4.6258 27.2299 4.63231 27.2655C4.63535 27.28 4.60063 27.302 4.58326 27.3205C4.55809 27.2945 4.52163 27.2717 4.51164 27.2404C4.506 27.222 4.54203 27.1894 4.57328 27.1428ZM4.84588 28.2589C4.84674 28.2598 4.87887 28.2743 4.87713 28.2831C4.85543 28.4119 4.84457 28.5456 4.799 28.6661C4.77035 28.7426 4.641 28.7255 4.61582 28.6402C4.59846 28.5812 4.60801 28.4946 4.64143 28.4458C4.69048 28.3732 4.77208 28.324 4.84588 28.2589ZM3.99857 29.7976C3.96384 29.7976 3.91306 29.8134 3.89266 29.7949C3.78848 29.6995 3.63829 29.6599 3.58664 29.4955C3.5671 29.4339 3.45685 29.4014 3.37264 29.3455C3.39304 29.2892 3.41648 29.2241 3.43949 29.1599C3.40954 29.1371 3.3696 29.1168 3.34486 29.0852C3.29885 29.0267 3.32142 28.97 3.38262 28.9462C3.47638 28.9097 3.57709 28.8961 3.6639 28.966C3.69298 28.9889 3.73379 29.0456 3.72554 29.0592C3.70427 29.0944 3.66 29.1186 3.62049 29.1375C3.59923 29.1481 3.56797 29.1393 3.51588 29.1393C3.60617 29.2523 3.66607 29.3279 3.8002 29.3073C3.8588 29.298 3.94214 29.3622 3.99336 29.4141C4.0576 29.4792 4.03243 29.5482 3.97253 29.6204C3.94952 29.6476 3.98642 29.7268 3.99857 29.7976ZM3.58143 28.5434C3.35701 28.5702 3.35701 28.5702 3.38653 28.3974C3.45945 28.4524 3.52022 28.4977 3.58143 28.5434ZM3.31404 26.8187C3.36179 26.7849 3.42647 26.7761 3.52717 26.7435C3.47769 26.8328 3.45815 26.8878 3.42126 26.926C3.40129 26.9471 3.35137 26.9392 3.31534 26.9445C3.31361 26.9005 3.29451 26.8319 3.31404 26.8187ZM3.19294 23.8218C3.1912 23.8135 3.23417 23.7818 3.25197 23.7853C3.2715 23.7893 3.28496 23.8214 3.3084 23.8509C3.27714 23.8742 3.25674 23.8904 3.23634 23.9058C3.22072 23.8781 3.19945 23.8517 3.19294 23.8218ZM3.16255 30.0619C3.14606 30.0425 3.11827 30.0245 3.11654 30.0043C3.11524 29.9858 3.14215 29.9647 3.16776 29.9286C3.18816 29.9678 3.20986 29.9906 3.20769 30.0109C3.20596 30.0289 3.17861 30.0452 3.16255 30.0619ZM3.01236 26.9032C3.01974 26.8741 3.0753 26.8297 3.0944 26.8363C3.13217 26.8491 3.16125 26.8922 3.20769 26.9357C3.15951 26.974 3.13043 27.0157 3.10004 27.0175C3.03016 27.021 2.9976 26.966 3.01236 26.9032ZM2.92815 26.5703V26.3372C2.94508 26.3328 2.96201 26.3284 2.97894 26.3249C3.0154 26.3702 3.05186 26.4159 3.10048 26.477C3.04275 26.5087 2.99977 26.5316 2.92815 26.5703ZM2.69636 23.1864C2.61128 23.1829 2.56049 23.1345 2.5631 23.0527C2.56614 22.9753 2.61128 22.9151 2.69853 22.9261C2.78447 22.938 2.86825 22.9626 2.9759 22.9868C2.89343 23.1284 2.81529 23.1908 2.69636 23.1864ZM2.67639 23.8773C2.67292 23.8597 2.66511 23.8271 2.66684 23.8262C2.69983 23.8161 2.73369 23.81 2.76798 23.8025C2.77058 23.8205 2.77362 23.8386 2.7771 23.8566C2.74367 23.8636 2.70981 23.8707 2.67639 23.8773ZM2.63385 22.2489C2.70287 22.2414 2.77753 22.3065 2.76668 22.3773C2.75626 22.4424 2.7224 22.5035 2.69809 22.5694C2.58654 22.5303 2.5427 22.4683 2.54791 22.3711C2.55094 22.3113 2.56093 22.2568 2.63385 22.2489ZM2.60347 20.8474C2.61866 20.8426 2.64774 20.883 2.68811 20.9182C2.6408 20.9472 2.61128 20.9784 2.5809 20.9798C2.56049 20.9802 2.53836 20.9384 2.51709 20.9156C2.54574 20.8914 2.57091 20.8575 2.60347 20.8474ZM2.39121 20.3434C2.37081 20.3333 2.35561 20.2551 2.37081 20.2375C2.42506 20.1746 2.47976 20.1996 2.52577 20.2616C2.50537 20.3346 2.46456 20.3808 2.39121 20.3434ZM2.40944 24.5611C2.3847 24.5452 2.36386 24.5193 2.34823 24.4933C2.34476 24.4881 2.37428 24.4507 2.38122 24.4529C2.40944 24.4617 2.43461 24.4801 2.47845 24.5052C2.4446 24.5329 2.41595 24.565 2.40944 24.5611ZM2.65252 20.5607C2.68247 20.6077 2.70895 20.6319 2.71329 20.6601C2.71546 20.6781 2.68637 20.7014 2.67118 20.7216C2.64557 20.7027 2.60564 20.6873 2.59956 20.6636C2.59348 20.6416 2.62517 20.6104 2.65252 20.5607ZM3.02625 18.818C3.03363 18.8364 3.05056 18.8685 3.04579 18.872C3.01931 18.8932 2.98675 18.9077 2.9568 18.9248C2.94942 18.9068 2.94161 18.8892 2.93423 18.872C2.96505 18.854 2.99587 18.836 3.02625 18.818ZM3.09353 25.5874C2.98762 25.4942 3.07617 25.4234 3.08876 25.3526C3.17427 25.4318 3.13477 25.5004 3.09353 25.5874ZM3.17557 22.8988C3.19511 22.9124 3.21464 22.9256 3.24416 22.9463C3.22028 22.9766 3.20683 23.0083 3.18859 23.0114C3.17167 23.0149 3.13043 22.9841 3.13173 22.9775C3.14041 22.9498 3.15995 22.9248 3.17557 22.8988ZM2.22496 22.3096C2.20976 22.3135 2.172 22.2836 2.16809 22.2647C2.15334 22.1904 2.20369 22.1719 2.26706 22.1609C2.31264 22.248 2.28877 22.292 2.22496 22.3096ZM1.9962 22.9428C1.9185 22.8531 1.94759 22.7946 2.00184 22.7555C2.06826 22.708 2.14335 22.6886 2.22018 22.8016C2.14248 22.8504 2.06782 22.8979 1.9962 22.9428ZM1.86034 20.6438C1.85166 20.6631 1.84515 20.6838 1.83343 20.7018C1.79653 20.7599 1.76701 20.8483 1.68193 20.8192C1.58861 20.788 1.63245 20.7045 1.64417 20.6363C1.65459 20.5739 1.65632 20.5101 1.66457 20.4173C1.73619 20.4274 1.81129 20.4178 1.8586 20.4503C1.93066 20.5 1.88899 20.5778 1.86034 20.6438ZM2.0357 21.6521C2.06348 21.6565 2.08866 21.682 2.13076 21.7093C2.09691 21.737 2.0726 21.7691 2.05914 21.7651C2.0318 21.7568 2.00619 21.7317 1.99056 21.7071C1.98622 21.6996 2.02311 21.6499 2.0357 21.6521ZM11.2224 25.0232C11.2423 25.0325 11.258 25.0518 11.2814 25.0734C11.2558 25.0949 11.2415 25.1068 11.2272 25.1187C11.2133 25.1002 11.1929 25.083 11.1877 25.0624C11.185 25.0518 11.2167 25.0206 11.2224 25.0232ZM11.2172 22.5303C11.2245 22.4855 11.2675 22.4468 11.2944 22.4054C11.3331 22.4331 11.3721 22.4608 11.4368 22.5074C11.3786 22.5694 11.35 22.6257 11.3101 22.6354C11.241 22.6521 11.2085 22.5875 11.2172 22.5303ZM11.5132 18.7696C11.5414 18.7946 11.5883 18.8171 11.5926 18.8461C11.597 18.8747 11.5588 18.9103 11.5262 18.9653C11.4915 18.9099 11.4589 18.8786 11.4555 18.8448C11.4533 18.8219 11.4924 18.7946 11.5132 18.7696ZM11.8448 18.9253C11.8717 18.9165 11.9139 18.9552 11.9564 18.9763C11.9395 18.9978 11.926 19.015 11.9143 19.0299C11.9451 19.0391 11.9803 19.0748 12.0302 19.1082C11.9755 19.1561 11.9421 19.2085 11.9082 19.2085C11.877 19.2085 11.824 19.1552 11.8205 19.1214C11.8197 19.1117 11.824 19.1003 11.8301 19.088C11.8006 19.0655 11.7671 19.0431 11.7663 19.0194C11.7645 18.9873 11.8101 18.9371 11.8448 18.9253ZM12.1921 17.4904C12.2203 17.5141 12.2481 17.5387 12.2876 17.5726C12.249 17.6025 12.2207 17.639 12.2025 17.6346C12.1765 17.6276 12.1448 17.5915 12.1422 17.566C12.14 17.5422 12.1739 17.5154 12.1921 17.4904ZM13.0611 16.1337C13.0854 16.1979 13.0989 16.2195 13.0984 16.2406C13.0984 16.2516 13.0746 16.263 13.0607 16.274C13.0481 16.2547 13.0285 16.2362 13.0242 16.2151C13.0216 16.2001 13.039 16.1808 13.0611 16.1337ZM14.7687 19.8166C14.8538 19.814 14.9202 19.8755 14.9189 19.9565C14.9181 20.0444 14.8308 20.1438 14.7531 20.1451C14.6754 20.1464 14.6068 20.0792 14.6034 20C14.5994 19.9059 14.6776 19.8197 14.7687 19.8166ZM14.9901 16.5634C15.0248 16.6082 15.0643 16.6364 15.0665 16.6676C15.0674 16.6918 15.024 16.7199 15.0001 16.7459C14.9771 16.7177 14.9428 16.6918 14.9354 16.6597C14.9298 16.6381 14.9632 16.6078 14.9901 16.5634ZM15.0426 19.8039C14.9359 19.7216 14.9884 19.686 15.0917 19.6684C15.0769 19.7093 15.0622 19.7502 15.0426 19.8039ZM14.7887 21.4375C14.7592 21.4063 14.7331 21.3685 14.7158 21.3285C14.7123 21.3201 14.7596 21.2757 14.7653 21.2792C14.803 21.3012 14.8356 21.332 14.8864 21.3738C14.8378 21.4063 14.7926 21.4419 14.7887 21.4375ZM14.5825 23.2361C14.5552 23.2014 14.5035 23.1644 14.5061 23.1323C14.5092 23.0883 14.5478 23.025 14.5843 23.0136C14.6151 23.0044 14.6641 23.0576 14.7362 23.1024C14.6663 23.1635 14.6246 23.1996 14.5825 23.2361ZM14.5061 19.4327C14.5317 19.4591 14.5678 19.482 14.579 19.5136C14.5843 19.5277 14.5413 19.5752 14.5157 19.5792C14.4948 19.5827 14.4679 19.544 14.4319 19.5141C14.4631 19.4798 14.4849 19.4565 14.5061 19.4327ZM15.1598 19.0413C15.1894 18.9978 15.4663 18.9789 15.4932 19.0211C15.5357 19.0888 15.557 19.1698 15.5874 19.2449C15.5752 19.2559 15.5631 19.2674 15.5514 19.2788C15.4511 19.23 15.356 19.161 15.2384 19.237C15.2215 19.248 15.1451 19.2041 15.1321 19.1711C15.1182 19.1363 15.1364 19.077 15.1598 19.0413ZM15.6885 17.1021C15.7918 17.1232 15.8036 17.2023 15.8357 17.2885C15.6673 17.2648 15.6673 17.2648 15.6885 17.1021ZM15.9498 16.6944C16.0475 16.6927 16.1204 16.7806 16.1183 16.8976C16.1165 17.0145 16.0288 17.1315 15.9433 17.1328C15.857 17.1342 15.761 17.0071 15.7684 16.9007C15.7749 16.8004 15.8665 16.6962 15.9498 16.6944ZM16.219 17.4152C16.2906 17.4587 16.2572 17.5475 16.1335 17.6522C16.0492 17.5924 15.998 17.5167 16.0727 17.4231C16.0944 17.3963 16.1825 17.3927 16.219 17.4152ZM16.2476 18.1509C16.2342 18.1324 16.2155 18.1152 16.2094 18.0941C16.2068 18.0845 16.2303 18.0677 16.242 18.0546C16.2589 18.0699 16.2754 18.0858 16.2975 18.1064C16.2745 18.1276 16.2611 18.139 16.2476 18.1509ZM15.3144 19.9217C15.2892 19.8936 15.2419 19.8632 15.2445 19.8377C15.2479 19.7977 15.2853 19.7612 15.3183 19.7076C15.3586 19.7529 15.4107 19.792 15.4042 19.8078C15.3873 19.8509 15.3456 19.8843 15.3144 19.9217ZM16.5267 17.7274C16.5276 17.7538 16.5393 17.7898 16.5272 17.8052C16.4781 17.8637 16.4334 17.8413 16.36 17.7357C16.4373 17.7322 16.482 17.73 16.5267 17.7274ZM16.5775 19.117C16.6057 19.2164 16.5371 19.2471 16.4321 19.3052C16.4369 19.1882 16.4343 19.1135 16.5289 19.0893C16.5423 19.0858 16.5732 19.1038 16.5775 19.117ZM16.844 18.54C16.8597 18.5673 16.8844 18.5941 16.8874 18.6223C16.8892 18.6372 16.8484 18.6737 16.8345 18.6702C16.8067 18.6636 16.785 18.635 16.7455 18.6034C16.7911 18.5743 16.8175 18.5572 16.844 18.54ZM17.1071 18.8259C17.124 18.8228 17.1466 18.8514 17.1774 18.8742C17.1448 18.8997 17.124 18.9283 17.1045 18.9275C17.0862 18.927 17.0689 18.8954 17.0511 18.8773C17.0697 18.8589 17.0862 18.8294 17.1071 18.8259ZM17.2655 20.7537C17.2377 20.7836 17.2208 20.8017 17.2039 20.8201C17.1865 20.803 17.1579 20.788 17.1548 20.7691C17.1522 20.752 17.1752 20.7172 17.1917 20.7137C17.2091 20.7102 17.2325 20.7344 17.2655 20.7537ZM17.4908 18.1896C17.4239 18.2181 17.3653 18.2428 17.2894 18.2753C17.3549 18.1289 17.371 18.1227 17.4908 18.1896ZM17.6141 18.8839C17.5424 18.8932 17.4899 18.9002 17.4239 18.909C17.4852 18.7735 17.4851 18.7735 17.6141 18.8839ZM17.7013 20.4969C17.7317 20.4771 17.7972 20.4789 17.8268 20.5C17.8988 20.5501 17.8802 20.6038 17.7656 20.7102C17.6527 20.5972 17.6327 20.5404 17.7013 20.4969ZM17.7625 18.8237C17.8567 18.8945 17.8341 18.9644 17.7699 19.0774C17.6944 18.9648 17.664 18.8949 17.7625 18.8237ZM17.9014 17.8285C18.0486 17.8835 18.0108 18.0088 17.9978 18.1016C17.9826 18.2129 17.8784 18.2199 17.7834 18.2283C17.6531 18.0352 17.8255 17.9508 17.9014 17.8285ZM18.0382 18.931C18.0499 18.9288 18.0651 18.9525 18.082 18.9675C18.0672 18.9886 18.0555 19.004 18.0442 19.0198C18.0286 19.0026 18.0086 18.9881 17.9995 18.9679C17.9974 18.9618 18.023 18.9336 18.0382 18.931ZM18.1358 19.4745C18.1228 19.5233 18.0855 19.5704 18.0464 19.6029C18.0364 19.6104 17.9687 19.5646 17.9444 19.5308C17.9006 19.4697 17.9188 19.4072 17.9817 19.3681C18.0147 19.3479 18.0564 19.3435 18.1111 19.3267C18.1224 19.3848 18.1462 19.4349 18.1358 19.4745ZM18.1241 22.7264C17.9891 22.6134 17.9644 22.503 17.9566 22.3957C17.9531 22.357 18.0056 22.2871 18.0438 22.2779C18.1163 22.2599 18.1614 22.3227 18.161 22.3913C18.1601 22.4868 18.1415 22.5822 18.1241 22.7264ZM18.2144 20.2142C18.2404 20.2186 18.2626 20.2463 18.3021 20.2762C18.2587 20.3061 18.2331 20.3237 18.2083 20.3412C18.1914 20.3153 18.1658 20.2902 18.161 20.2625C18.1593 20.248 18.1983 20.2115 18.2144 20.2142ZM18.2348 19.9604C18.2526 20.0259 18.2656 20.0734 18.2834 20.139C18.1658 20.0765 18.1658 20.0765 18.2348 19.9604ZM18.2322 21.0572C18.2226 21.0615 18.1966 21.0272 18.1784 21.0105C18.204 20.9833 18.2265 20.9516 18.2565 20.9318C18.2652 20.9265 18.296 20.9573 18.3338 20.9828C18.2912 21.0158 18.2647 21.0435 18.2322 21.0572ZM18.4531 18.3505C18.4688 18.3549 18.4853 18.3584 18.5009 18.3628C18.5091 18.4415 18.5178 18.5198 18.53 18.6319C18.4596 18.6082 18.4093 18.591 18.3411 18.5677C18.3876 18.4785 18.4206 18.4143 18.4531 18.3505ZM18.5204 18.8949C18.5109 18.8901 18.5043 18.8597 18.5057 18.8593C18.546 18.8382 18.5877 18.8193 18.6289 18.7999C18.615 18.8817 18.5894 18.9314 18.5204 18.8949ZM18.5122 21.0035C18.523 20.9657 18.5343 20.9283 18.5473 20.8914C18.5478 20.89 18.5816 20.8962 18.5816 20.9006C18.5847 20.9402 18.5834 20.9798 18.5834 21.0198C18.5595 21.0141 18.536 21.0088 18.5122 21.0035ZM18.5465 21.6095C18.4002 21.5466 18.3559 21.4863 18.3928 21.4169C18.4206 21.3632 18.5317 21.3333 18.5786 21.3773C18.6671 21.4586 18.5946 21.5268 18.5465 21.6095ZM18.5755 21.7651C18.5564 21.7955 18.5239 21.8184 18.497 21.8439C18.4848 21.8232 18.4575 21.7968 18.4627 21.7832C18.4757 21.7498 18.5035 21.7225 18.5404 21.6724C18.5599 21.7216 18.5825 21.7528 18.5755 21.7651ZM17.2664 25.7299C17.3449 25.769 17.3823 25.7875 17.4331 25.813C17.3406 25.9027 17.3115 25.8526 17.2664 25.7299ZM17.2937 19.7084C17.2898 19.6913 17.3315 19.6618 17.3523 19.6385C17.3788 19.6636 17.4153 19.6851 17.4266 19.7159C17.4335 19.7339 17.3996 19.7678 17.3732 19.8118C17.3371 19.7678 17.3028 19.7414 17.2937 19.7084ZM17.239 25.4489C17.2777 25.4296 17.3163 25.4093 17.3549 25.3895C17.364 25.4098 17.3727 25.4296 17.3814 25.4494C17.341 25.4652 17.3002 25.4806 17.2594 25.4955L17.239 25.4489ZM17.3319 28.8891C17.2586 28.9326 17.2343 28.9585 17.2204 28.9533C17.2013 28.9458 17.1791 28.9168 17.1783 28.8961C17.1778 28.8807 17.2082 28.8526 17.2269 28.8508C17.2512 28.849 17.2768 28.8675 17.3319 28.8891ZM17.0619 27.5074C17.0463 27.5096 17.0077 27.4713 17.0107 27.4594C17.0181 27.4313 17.0437 27.4084 17.0619 27.3829C17.0858 27.401 17.1092 27.419 17.1487 27.4489C17.1101 27.4775 17.0875 27.5043 17.0619 27.5074ZM16.7576 28.0351C16.782 27.9739 16.8054 27.9119 16.8297 27.8504C16.844 27.8561 16.8584 27.8622 16.8727 27.868C16.8761 27.9414 16.8319 27.9946 16.7576 28.0351ZM16.7494 29.214C16.6656 29.1384 16.6826 29.0997 16.7876 29.0491C16.772 29.1155 16.7633 29.156 16.7494 29.214ZM16.403 24.1152C16.3288 24.1143 16.2459 24.0189 16.2528 23.941C16.2593 23.8632 16.3457 23.7788 16.4212 23.7766C16.4976 23.7744 16.5671 23.8592 16.5641 23.9525C16.5614 24.0386 16.4846 24.116 16.403 24.1152ZM16.3483 27.5703C16.3362 27.572 16.3006 27.5241 16.3053 27.5157C16.3188 27.4907 16.3453 27.4647 16.3709 27.4581C16.3852 27.4542 16.4087 27.488 16.4421 27.5166C16.4017 27.5412 16.3765 27.565 16.3483 27.5703ZM16.2875 29.1687C16.2433 29.1164 16.2007 29.0883 16.2007 29.0592C16.2003 29.0201 16.232 28.9801 16.2498 28.9405C16.2845 28.9669 16.3405 28.9889 16.3488 29.0219C16.3566 29.0566 16.3175 29.1019 16.2875 29.1687ZM18.3407 28.3785C18.3915 28.4357 18.4484 28.4735 18.4436 28.5012C18.4362 28.5447 18.388 28.5812 18.3576 28.6208C18.3264 28.587 18.2778 28.5566 18.2704 28.5179C18.2647 28.4849 18.306 28.4427 18.3407 28.3785ZM19.0231 27.7352C19.0343 27.7321 19.0517 27.7528 19.0899 27.7778C19.0608 27.7941 19.0439 27.8112 19.027 27.8112C19.0135 27.8108 18.9905 27.7888 18.9909 27.7765C18.9914 27.7615 19.0087 27.7387 19.0231 27.7352ZM19.5696 26.9937C19.5882 27.0368 19.6073 27.0601 19.6043 27.0799C19.6017 27.0971 19.573 27.1103 19.5557 27.1248C19.5413 27.105 19.5166 27.0857 19.5153 27.065C19.514 27.0483 19.5405 27.0294 19.5696 26.9937ZM19.7744 29.5883C19.7783 29.5179 19.8304 29.4858 19.8895 29.5051C19.9324 29.5192 19.9654 29.5658 20.0318 29.623C19.9567 29.6692 19.9168 29.7136 19.8734 29.7171C19.794 29.7233 19.771 29.6564 19.7744 29.5883ZM20.3075 30.5663C20.3452 30.6313 20.3804 30.6643 20.3795 30.696C20.3774 30.765 20.3418 30.8253 20.261 30.8086C20.232 30.802 20.1851 30.7439 20.1907 30.7298C20.2137 30.6784 20.2554 30.6357 20.3075 30.5663ZM20.7138 28.1595C20.7858 28.1591 20.8488 28.2233 20.847 28.2963C20.8457 28.3658 20.7819 28.4418 20.6955 28.4585C20.7077 28.4713 20.7203 28.4854 20.7359 28.5025C20.7112 28.5227 20.6903 28.5469 20.6838 28.5439C20.6625 28.5324 20.6465 28.5109 20.6287 28.4933L20.6617 28.4612C20.6582 28.4612 20.6552 28.4621 20.6513 28.4621C20.6287 28.4225 20.5805 28.3697 20.5684 28.3099C20.5532 28.2356 20.6378 28.16 20.7138 28.1595ZM20.696 27.0944C20.7103 27.0879 20.7455 27.1274 20.7867 27.1578C20.7437 27.1943 20.7177 27.2299 20.6851 27.2378C20.6678 27.2422 20.6157 27.1864 20.6196 27.1771C20.6352 27.1437 20.6639 27.1094 20.696 27.0944ZM20.7641 30.1846C20.7502 30.1639 20.7385 30.1401 20.735 30.1164C20.7342 30.1098 20.7732 30.0874 20.7802 30.0922C20.7984 30.105 20.8093 30.1291 20.8292 30.1569C20.7962 30.1714 20.7663 30.1876 20.7641 30.1846ZM19.4867 30.3776C19.468 30.3442 19.4511 30.3248 19.4471 30.3033C19.4454 30.2927 19.4689 30.2782 19.4806 30.2659C19.4958 30.2844 19.5149 30.3007 19.5231 30.3218C19.5266 30.3306 19.5062 30.3486 19.4867 30.3776ZM19.4936 31.1287C19.4832 31.2105 19.4076 31.2874 19.343 31.2813C19.2679 31.2743 19.168 31.1582 19.1772 31.0891C19.1893 31.0003 19.2692 30.9255 19.3486 30.9273C19.4341 30.9299 19.5058 31.0302 19.4936 31.1287ZM21.1018 29.8068C21.1292 29.8275 21.1526 29.8578 21.1674 29.889C21.1713 29.8974 21.1374 29.9233 21.1079 29.9554C21.0788 29.9088 21.0567 29.8789 21.0428 29.8451C21.0411 29.8407 21.0944 29.8015 21.1018 29.8068ZM15.758 30.1045C15.7367 30.0834 15.7063 30.0654 15.6976 30.0399C15.692 30.0258 15.7211 29.9818 15.7363 29.981C15.7623 29.9796 15.7901 30.0016 15.8335 30.0214C15.7997 30.0588 15.7788 30.0817 15.758 30.1045ZM15.399 26.8728C15.3834 26.846 15.3634 26.8214 15.3543 26.7923C15.3513 26.7844 15.3851 26.7519 15.3895 26.7545C15.4155 26.7686 15.4385 26.7901 15.4771 26.8209C15.4402 26.8451 15.4198 26.8587 15.399 26.8728ZM14.2591 25.7585C14.2266 25.6996 14.1893 25.6622 14.1958 25.6354C14.2027 25.605 14.2487 25.583 14.2774 25.558C14.296 25.5844 14.3321 25.6125 14.3299 25.6371C14.3269 25.6701 14.2947 25.7009 14.2591 25.7585ZM13.9132 24.2405C13.8958 24.2269 13.8785 24.2084 13.8719 24.1877C13.8689 24.1802 13.9002 24.1495 13.9062 24.1521C13.9258 24.1605 13.941 24.1794 13.9644 24.2009C13.9392 24.2207 13.9167 24.2431 13.9132 24.2405ZM13.6406 22.8962C13.6154 22.8887 13.5915 22.8592 13.5794 22.8333C13.5755 22.8254 13.6102 22.7849 13.6293 22.7832C13.6484 22.7814 13.6701 22.81 13.7461 22.8663C13.694 22.8825 13.6632 22.9028 13.6406 22.8962ZM11.1868 25.8592L13.6632 18.0409L13.6714 18.0132C13.6974 17.909 13.7673 17.8224 13.8728 17.7634C13.9878 17.6984 14.1293 17.679 14.2509 17.7111C14.3746 17.7432 14.4905 17.8294 14.5612 17.9429C14.6198 18.0356 14.6403 18.1412 14.6207 18.2203L14.3433 19.2049C14.3494 19.1904 14.3794 19.1689 14.3963 19.1693C14.428 19.1702 14.4597 19.1887 14.4909 19.1997C14.4792 19.2186 14.4675 19.2375 14.4549 19.2564C14.4289 19.2691 14.3937 19.2982 14.3789 19.2902C14.3577 19.2779 14.3433 19.241 14.3412 19.2128L12.7321 24.9221C12.5884 25.4397 12.8857 25.9845 13.4045 26.1393C13.9145 26.2805 14.4527 25.9779 14.599 25.4617L14.9029 24.3838C14.8256 24.4406 14.7748 24.4837 14.7184 24.5074C14.7054 24.5127 14.6363 24.4357 14.6303 24.3909C14.619 24.3152 14.6572 24.2405 14.7466 24.2519C14.7735 24.2554 14.7991 24.2713 14.8299 24.2937C14.8404 24.2809 14.8512 24.2686 14.8612 24.2563C14.8794 24.2713 14.8998 24.288 14.9237 24.3073L15.2189 23.2598C15.126 23.2502 15.0926 23.2154 15.1229 23.1521C15.1294 23.1389 15.1742 23.1292 15.1755 23.1314C15.1937 23.1671 15.2084 23.2044 15.2241 23.2414L15.8752 20.9283L16.2463 19.6904C16.2789 19.5646 16.3718 19.489 16.4369 19.4525C16.5536 19.3892 16.6951 19.3707 16.8228 19.4059C16.9447 19.438 17.0567 19.5229 17.1257 19.6363C17.1869 19.737 17.2086 19.8509 17.1865 19.9389L14.5721 29.4744C14.5096 29.7 14.5309 29.9423 14.632 30.1573L14.6563 30.2096C14.6693 30.2338 14.6845 30.2571 14.6988 30.2782C14.7175 30.3086 14.7375 30.3389 14.7596 30.3657C15.0991 30.7848 15.7115 30.8473 16.1252 30.5038L18.6402 28.4141C18.7982 28.28 19.2253 28.3147 19.399 28.5241C19.5913 28.7567 19.4228 29.1252 19.2631 29.3165C18.7822 29.8904 18.2686 30.7628 17.6922 31.7844L19.8317 31.9713C20.1707 31.3939 20.4828 30.9005 20.7442 30.5887C20.8114 30.5087 20.8718 30.426 20.9286 30.3415C20.9095 30.3156 20.9039 30.2795 20.9121 30.2408C20.9217 30.1978 20.9725 30.1643 21.005 30.1265C21.0172 30.1388 21.0298 30.1511 21.0424 30.1639C21.6014 29.2074 21.5572 28.0702 20.8861 27.2598L20.8857 27.2594C20.232 26.4718 19.1346 26.1877 18.2087 26.4669C18.2396 26.4797 18.2778 26.5285 18.2786 26.5597C18.2804 26.6024 18.2391 26.6463 18.1983 26.7237C18.1436 26.6565 18.0989 26.6252 18.0924 26.5874C18.0868 26.554 18.0937 26.5237 18.1098 26.5003C17.8545 26.5896 17.6141 26.7207 17.4027 26.8996L17.2568 27.021L18.0742 24.0408C18.0711 24.0342 18.0672 24.0272 18.0651 24.0197C18.0316 23.9102 18.0803 23.7748 18.1662 23.7062L18.9792 20.7401C18.9093 20.6565 18.9362 20.5989 19.0339 20.5404L19.0582 20.4534C19.0912 20.3237 19.1103 20.193 19.1212 20.062C19.0938 20.0325 19.066 20.0009 19.0343 19.9679C19.073 19.934 19.1016 19.9068 19.1294 19.8826C19.1325 19.4415 19.0144 19.0022 18.7761 18.6064C18.7487 18.5607 18.7179 18.518 18.6875 18.4745C18.6732 18.4684 18.6589 18.4622 18.6454 18.4565C18.648 18.4437 18.6498 18.4341 18.6524 18.4226C18.3203 17.9692 17.8502 17.6451 17.3054 17.5027C17.2863 17.4978 17.2672 17.4952 17.2481 17.4908C17.2599 17.533 17.2356 17.5607 17.1639 17.6377C17.1709 17.5884 17.1783 17.5392 17.1865 17.4776C16.9443 17.4279 16.6977 17.4125 16.4542 17.4363C16.3939 17.2476 16.3101 17.0656 16.2025 16.8914C15.8687 16.3536 15.3482 15.9693 14.7318 15.8074C14.115 15.6527 13.4739 15.7375 12.9274 16.0467C12.3692 16.3598 11.9599 16.8822 11.8027 17.4798L10.1368 22.7383C10.1845 22.7634 10.1984 22.7999 10.1572 22.868C10.1346 22.8548 10.1133 22.8487 10.1051 22.8386L10.0313 23.0721L8.95913 18.3545C8.72864 17.0598 7.4707 16.2019 6.15373 16.4411C5.19964 16.6135 4.44827 17.3589 4.22472 18.2801C3.98902 18.2551 3.75636 18.2634 3.52587 18.3061C2.90254 18.4217 2.35388 18.7727 1.98058 19.2942C1.63202 19.7819 1.48139 20.3645 1.54477 20.9657C1.57949 20.9912 1.60727 21.0268 1.62724 21.0444C1.62594 21.106 1.60597 21.1535 1.57646 21.1851L2.52533 25.5712C2.53922 25.554 2.55398 25.5351 2.56918 25.514C2.623 25.5888 2.6842 25.6406 2.67509 25.6679C2.65816 25.7185 2.61388 25.7594 2.57525 25.802L2.72197 26.4797C2.7237 26.4784 2.72588 26.4766 2.72805 26.4753C2.73325 26.4726 2.75452 26.499 2.781 26.5237C2.76407 26.5346 2.75062 26.5448 2.73759 26.5527L3.00976 27.8112L2.7823 30.4823L2.80227 30.484V30.3789C2.83526 30.3978 2.86565 30.4097 2.86478 30.4159C2.86087 30.4401 2.85523 30.4642 2.84872 30.4875L4.71696 30.6511L4.957 27.8337C4.96525 27.733 4.95874 27.6331 4.93833 27.5395L3.47248 20.7643C3.44817 20.6315 3.50286 20.5198 3.55408 20.4485C3.63091 20.3404 3.74594 20.2652 3.87399 20.2427C4.00031 20.219 4.14051 20.2471 4.24599 20.3166C4.34843 20.3848 4.40616 20.4718 4.43177 20.6112L4.55939 21.1864C4.60627 21.2097 4.63145 21.241 4.6015 21.3017C4.59889 21.3065 4.59412 21.3104 4.58804 21.3148L5.73572 26.474C5.77218 26.6384 5.84858 26.784 5.95189 26.9027C5.9966 26.9133 6.05216 26.9454 6.06301 26.9797C6.06735 26.9933 6.06909 27.0052 6.06909 27.0162C6.12769 27.0641 6.19063 27.1054 6.25834 27.1389C6.2718 27.1239 6.28743 27.1125 6.29437 27.1147C6.32562 27.1239 6.35037 27.1551 6.39638 27.1943C6.55308 27.2435 6.7241 27.255 6.89599 27.2171C7.41644 27.0971 7.74504 26.5703 7.63001 26.0448L7.60049 25.908C7.57531 25.9348 7.55752 25.9568 7.54015 25.9568C7.51758 25.9568 7.48893 25.9221 7.47635 25.8957C7.47114 25.886 7.50413 25.8416 7.52062 25.8407C7.54102 25.8398 7.56142 25.8513 7.59137 25.8662L6.46626 20.6214C6.42286 20.6539 6.39291 20.6785 6.36209 20.6798C6.33517 20.6812 6.28352 20.6161 6.28308 20.5805C6.28308 20.5466 6.33561 20.4833 6.36382 20.4842C6.38856 20.485 6.41417 20.5022 6.44543 20.5259L6.09643 18.8997C6.05563 18.6671 6.24228 18.4213 6.49491 18.3747C6.61472 18.3531 6.73843 18.3764 6.84087 18.4367C6.84434 18.4147 6.86951 18.3883 6.89209 18.3492C6.92377 18.3923 6.9572 18.4178 6.95676 18.4424C6.95633 18.46 6.93723 18.4767 6.91943 18.4939C6.98932 18.5576 7.03707 18.6412 7.0566 18.7498L8.6453 25.7501C8.70954 26.0338 8.8606 26.2792 9.06678 26.4599C9.06114 26.4401 9.05723 26.4186 9.05767 26.3948C9.0581 26.306 9.12799 26.2145 9.20047 26.2079C9.28208 26.2009 9.37975 26.3099 9.38105 26.4111C9.38235 26.5012 9.31333 26.5725 9.22218 26.5751L9.21957 26.5747C9.39668 26.6899 9.60286 26.7633 9.8238 26.7827C9.84724 26.7849 9.87025 26.7862 9.8824 26.7857C10.4719 26.806 11.0084 26.4247 11.1868 25.8592Z" fill="#3BB4B4"/>
<path d="M15.4743 36.4103C15.4665 36.4125 15.4384 36.3789 15.4423 36.3704C15.4505 36.35 15.4721 36.3347 15.4886 36.3173C15.5011 36.3313 15.5141 36.3457 15.537 36.3712C15.5128 36.3874 15.4951 36.4052 15.4743 36.4103ZM15.4773 38.2443C15.4064 38.2681 15.3739 38.2133 15.3714 38.1555C15.3696 38.1241 15.4016 38.0909 15.4332 38.0297C15.4769 38.0858 15.5163 38.1164 15.5241 38.1538C15.5301 38.1806 15.502 38.2367 15.4773 38.2443ZM15.2502 38.2851C15.2238 38.277 15.1961 38.2528 15.1836 38.2282C15.1784 38.2188 15.2147 38.1717 15.2277 38.1734C15.255 38.1776 15.2796 38.2022 15.3199 38.2273C15.287 38.2558 15.2628 38.2889 15.2502 38.2851ZM14.6407 37.7017C14.613 37.6923 14.5866 37.6698 14.5693 37.646C14.5654 37.6405 14.5983 37.5929 14.613 37.5933C14.639 37.5938 14.6649 37.6167 14.7025 37.6367C14.6731 37.6681 14.6502 37.7047 14.6407 37.7017ZM14.1605 39.0767C14.1484 39.0835 14.1151 39.0746 14.1064 39.0619C14.0614 39.0003 14.096 38.9641 14.1627 38.9276C14.218 38.9939 14.2288 39.0419 14.1605 39.0767ZM13.9243 38.7168C13.9187 38.6977 13.9814 38.6599 14.0125 38.6306C14.0411 38.6637 14.0705 38.6964 14.1086 38.7402C14.0688 38.7772 14.0415 38.8022 14.0151 38.8269C13.9827 38.7912 13.9364 38.7585 13.9243 38.7168ZM13.8053 37.5891C13.8179 37.5576 13.8395 37.5279 13.865 37.5049C13.8715 37.4994 13.9053 37.5236 13.9416 37.5419C13.9053 37.5823 13.8806 37.6091 13.8568 37.6358C13.8386 37.6201 13.8019 37.5967 13.8053 37.5891ZM12.7878 39.1995C12.7234 39.2208 12.6472 39.2097 12.6511 39.1294C12.6529 39.0852 12.7134 39.0134 12.755 39.0079C12.8216 38.9994 12.8938 39.0355 12.9639 39.0529L12.9678 39.1137C12.9077 39.143 12.8506 39.1787 12.7878 39.1995ZM12.6022 38.2061C12.6044 38.1819 12.6477 38.1385 12.6628 38.1423C12.6957 38.1504 12.7225 38.1831 12.7697 38.2205C12.7156 38.2503 12.684 38.2783 12.6503 38.2813C12.6356 38.283 12.6005 38.2316 12.6022 38.2061ZM11.9101 38.7394C11.9088 38.7436 11.8508 38.7419 11.8409 38.7279C11.7872 38.6535 11.8287 38.6076 11.888 38.5707L11.949 38.5868C11.9369 38.6382 11.9265 38.6901 11.9101 38.7394ZM11.031 39.3538C11.1059 39.2463 11.1552 39.3151 11.2067 39.3236C11.2071 39.341 11.2075 39.3585 11.2075 39.3759C11.1543 39.3691 11.1007 39.3623 11.031 39.3538ZM15.8602 37.4093C15.8879 37.4425 15.919 37.471 15.9156 37.4761C15.8978 37.5011 15.8723 37.5224 15.8455 37.5389C15.8412 37.5419 15.8048 37.5134 15.807 37.5071C15.8165 37.479 15.8351 37.4531 15.8602 37.4093ZM16.0826 37.3809C16.1098 37.3936 16.1306 37.42 16.1673 37.454C16.1288 37.4756 16.0981 37.5032 16.0869 37.4973C16.0627 37.4841 16.0406 37.4552 16.0337 37.4285C16.0306 37.4166 16.0752 37.377 16.0826 37.3809ZM16.2482 37.4896C16.2608 37.493 16.2777 37.519 16.2751 37.5317C16.272 37.5436 16.2461 37.5598 16.2322 37.5576C16.2193 37.5564 16.2089 37.5338 16.1916 37.5139C16.2162 37.5024 16.2348 37.4862 16.2482 37.4896ZM16.5537 36.5472C16.5632 36.5425 16.6034 36.5943 16.6514 36.6402C16.5987 36.681 16.564 36.7231 16.5208 36.7341C16.503 36.738 16.4386 36.6619 16.4468 36.6445C16.4654 36.6033 16.5113 36.5701 16.5537 36.5472ZM16.8911 34.7081C16.9824 34.6919 17.0127 34.7871 17.0386 34.856C17.0551 34.8997 17.0654 34.955 17.0525 34.9983C17.0395 35.0429 17.0027 35.1045 16.9642 35.1143C16.8902 35.133 16.853 35.0722 16.8435 35.0043C16.8375 34.9639 16.8422 34.9218 16.8422 34.8806C16.8483 34.8186 16.7864 34.7268 16.8911 34.7081ZM17.1018 34.6626V34.8572C17.0563 34.8045 17.0088 34.7523 17.1018 34.6626ZM17.2246 35.3697C17.2424 35.399 17.2722 35.4279 17.2735 35.4581C17.2744 35.4793 17.2363 35.5014 17.2004 35.5397C17.1818 35.4908 17.1589 35.4602 17.1641 35.4356C17.1701 35.4105 17.2034 35.3914 17.2246 35.3697ZM17.4132 34.6533C17.4422 34.6949 17.4747 34.7208 17.4721 34.7434C17.4691 34.7701 17.4362 34.7931 17.4158 34.8177C17.3938 34.7956 17.3553 34.7748 17.3527 34.751C17.3505 34.7264 17.3834 34.6987 17.4132 34.6533ZM18.0336 34.8424C18.0699 34.8997 18.1119 34.938 18.1041 34.9613C18.0929 34.997 18.0479 35.0221 18.0172 35.0523C17.9916 35.0234 17.9436 34.9924 17.9467 34.9673C17.9514 34.9303 17.9925 34.8976 18.0336 34.8424ZM17.4517 36.0084C17.4409 35.982 17.4331 35.9527 17.4293 35.9204C17.4773 35.886 17.5231 35.8439 17.5742 35.8218C18.025 35.1279 18.458 34.3949 18.8776 33.6742L17.2324 33.5344C17.2644 33.5523 17.2956 33.5799 17.3107 33.6054C17.3639 33.6942 17.3285 33.7648 17.1961 33.8697C17.1091 33.8017 16.9824 33.766 17.0222 33.6356C17.0356 33.5918 17.0905 33.5476 17.1416 33.5268L16.7492 33.4937C16.6354 33.6853 16.5173 33.8803 16.3966 34.0762C16.3971 34.0936 16.3927 34.1157 16.3836 34.1421C16.3785 34.1361 16.372 34.1302 16.3668 34.1242C16.0704 34.6036 15.7577 35.0867 15.4393 35.5354C15.4505 35.5588 15.4587 35.5792 15.457 35.5983C15.4548 35.6314 15.4016 35.6612 15.3709 35.6926C15.3627 35.6841 15.3536 35.6756 15.3441 35.668C15.0335 36.0972 14.719 36.4898 14.4097 36.8136C14.4387 36.8472 14.4828 36.8829 14.4789 36.9134C14.4746 36.9483 14.4162 36.9763 14.3811 37.0078L14.3379 36.9831C14.3413 36.9479 14.3448 36.9122 14.3478 36.8765C13.8352 37.3987 13.3385 37.7221 12.9059 37.6851L10.88 37.5139L10.7144 39.4031L12.7381 39.5743H12.7411C12.7368 39.5671 12.732 39.5599 12.7294 39.5518C12.7056 39.4804 12.7684 39.3993 12.8324 39.4031C12.909 39.4078 12.9388 39.4643 12.9488 39.5289C12.9522 39.5493 12.9514 39.5671 12.9466 39.5833C14.6749 39.599 16.141 37.9881 17.4517 36.0084Z" fill="#3BB4B4"/>
<path d="M12.1788 8.48373C12.1601 8.45396 12.1392 8.4325 12.1431 8.4255C12.1575 8.40142 12.1801 8.38215 12.1993 8.3607C12.208 8.37734 12.2258 8.3966 12.2232 8.41105C12.2184 8.43294 12.1993 8.4522 12.1788 8.48373ZM11.2759 5.42333C11.2128 5.44479 11.1384 5.36642 11.1545 5.29199C11.1619 5.25652 11.2089 5.20924 11.2433 5.20442C11.3068 5.19567 11.3695 5.22062 11.3721 5.34059C11.3516 5.35941 11.3194 5.40845 11.2759 5.42333ZM11.1384 7.65536C11.1093 7.60983 11.0745 7.57743 11.081 7.56036C11.0932 7.52621 11.1284 7.50125 11.1541 7.47279C11.175 7.49687 11.2154 7.52446 11.212 7.54416C11.2072 7.57787 11.1732 7.60633 11.1384 7.65536ZM10.9069 3.06652C10.8817 3.02011 10.8826 2.94437 10.9013 2.89096C10.9187 2.84236 10.9739 2.80821 11.0366 2.74253C11.0771 2.81434 11.1114 2.86031 11.1302 2.91197C11.1576 2.9899 11.1275 3.06171 11.0544 3.08885C11.0114 3.10505 10.9226 3.09411 10.9069 3.06652ZM10.7882 4.25347C10.7616 4.24953 10.7224 4.20049 10.7251 4.1751C10.7281 4.14751 10.7742 4.10285 10.7986 4.10504C10.8282 4.10767 10.8539 4.15102 10.8965 4.19086C10.8486 4.22063 10.8151 4.25784 10.7882 4.25347ZM10.7507 5.08008C10.7364 5.08358 10.6924 5.03849 10.6933 5.01616C10.6942 4.99252 10.729 4.95574 10.7538 4.9518C10.7773 4.94742 10.8073 4.97632 10.8556 5.00258C10.8086 5.0398 10.7825 5.0722 10.7507 5.08008ZM10.5928 7.30467C10.5136 7.30073 10.4383 7.21229 10.4418 7.12647C10.4457 7.02533 10.5271 6.93733 10.6119 6.94302C10.695 6.94872 10.7668 7.0319 10.7647 7.11947C10.7625 7.21316 10.6741 7.30861 10.5928 7.30467ZM10.6815 8.16718C10.6594 8.14617 10.6228 8.1269 10.6189 8.10282C10.615 8.0783 10.6446 8.04897 10.6594 8.02182C10.6772 8.00913 10.695 7.99687 10.7129 7.98373C10.7238 8.01701 10.7481 8.05203 10.7425 8.08181C10.7368 8.11289 10.7029 8.13916 10.6815 8.16718ZM10.1964 9.28363C10.1768 9.25868 10.1372 9.22672 10.1424 9.20964C10.1529 9.17856 10.1894 9.15623 10.2151 9.12996C10.236 9.15185 10.2569 9.17374 10.2899 9.20877C10.2508 9.24029 10.2238 9.26174 10.1964 9.28363ZM10.504 6.28366C10.5179 6.26483 10.5893 6.26046 10.6093 6.27797C10.6863 6.34627 10.6337 6.39749 10.5741 6.45397C10.5027 6.40932 10.4457 6.36466 10.504 6.28366ZM10.5997 0.73467C10.6298 0.766631 10.6737 0.794652 10.685 0.831867C10.692 0.853758 10.6463 0.891411 10.6058 0.947015C10.5684 0.887471 10.531 0.852007 10.5271 0.812603C10.5245 0.789836 10.5736 0.760939 10.5997 0.73467ZM10.0202 14.8212C9.95315 14.7792 9.9588 14.7328 10.0115 14.689C10.0206 14.6807 10.0563 14.6855 10.0641 14.6956C10.1063 14.7556 10.0819 14.795 10.0202 14.8212ZM9.90528 14.1203C9.89614 14.0818 9.8844 14.0581 9.88701 14.0371C9.88875 14.0244 9.91355 14.0152 9.92747 14.0043C9.93879 14.0262 9.95489 14.0472 9.9575 14.0699C9.95837 14.0804 9.93357 14.094 9.90528 14.1203ZM9.86133 9.4557C9.84872 9.45833 9.83175 9.43862 9.80259 9.41936C9.83436 9.39878 9.8535 9.38302 9.87526 9.37558C9.88005 9.37426 9.90485 9.40623 9.90224 9.41892C9.89876 9.43425 9.87743 9.45307 9.86133 9.4557ZM9.35746 13.1404C9.27043 13.1444 9.21126 13.0892 9.20734 13.0016C9.20343 12.9093 9.27348 12.8274 9.35267 12.8309C9.42839 12.8344 9.4893 12.9031 9.49148 12.9872C9.49365 13.0783 9.44274 13.1365 9.35746 13.1404ZM8.67214 9.74072C8.64255 9.74729 8.58642 9.68643 8.56292 9.64396C8.54595 9.61332 8.54813 9.55377 8.56727 9.524C8.59425 9.48197 8.64516 9.45614 8.68563 9.4233C8.71217 9.4592 8.74306 9.49291 8.76438 9.53188C8.77744 9.55509 8.77613 9.58661 8.78745 9.64659C8.75829 9.67286 8.72044 9.73153 8.67214 9.74072ZM8.63602 10.4811C8.60556 10.4412 8.57641 10.4194 8.57946 10.4036C8.58337 10.3834 8.61166 10.3651 8.63341 10.3537C8.63863 10.3511 8.6704 10.3782 8.67083 10.3918C8.67127 10.4137 8.65473 10.436 8.63602 10.4811ZM8.3075 8.98504C8.26312 8.91236 8.22744 8.87033 8.21526 8.82217C8.21091 8.80597 8.27966 8.74817 8.29227 8.75474C8.33579 8.77707 8.38191 8.81385 8.40019 8.85676C8.40845 8.87646 8.35406 8.9233 8.3075 8.98504ZM8.60295 8.86551C8.62819 8.88653 8.65517 8.90404 8.65343 8.90886C8.64211 8.93513 8.62384 8.95877 8.60774 8.98329C8.59556 8.96928 8.57249 8.95527 8.57337 8.94213C8.57424 8.91936 8.5899 8.89703 8.60295 8.86551ZM12.2319 6.37823C12.2293 6.37998 12.2267 6.38217 12.2241 6.38392C12.2106 6.36291 12.1875 6.34277 12.1858 6.32131C12.1849 6.3108 12.1936 6.29898 12.2058 6.2841L10.4644 0L10.1933 7.34363L7.65308 6.7819L9.33135 13.5607C9.36181 13.5441 9.38226 13.5323 9.40141 13.5218C9.41272 13.5428 9.43056 13.5638 9.43143 13.5848C9.43187 13.598 9.39967 13.6255 9.39183 13.622C9.37399 13.6155 9.3579 13.5975 9.33483 13.5756L10.1202 16.7468L10.132 16.0555C10.1189 16.0432 10.0985 16.0318 10.0959 16.0178C10.0933 16.0042 10.1094 15.9867 10.122 15.9622C10.1255 15.9666 10.1294 15.9705 10.1333 15.974L10.2421 9.43906L13.2653 10.1072L12.2319 6.37823Z" fill="#3BB4B4"/>
<path d="M6.38833 36.9042C6.36175 36.9003 6.34058 36.8629 6.3167 36.8407C6.34508 36.8151 6.36986 36.7816 6.4032 36.769C6.41581 36.765 6.4478 36.8124 6.48203 36.8477C6.44149 36.8742 6.41221 36.9077 6.38833 36.9042ZM6.1338 37.1716C6.12434 37.176 6.05991 37.1081 6.06667 37.0951C6.0892 37.0516 6.13199 37.0177 6.16713 36.9799C6.19326 37.0047 6.22029 37.0299 6.26624 37.0738C6.21173 37.1164 6.17659 37.1521 6.1338 37.1716ZM6.06622 37.767C6.03108 37.7643 5.97567 37.7139 5.97432 37.6826C5.97297 37.6495 6.02027 37.593 6.05496 37.5861C6.08469 37.5804 6.12614 37.6291 6.18876 37.6713C6.13245 37.7178 6.09686 37.7696 6.06622 37.767ZM5.83331 36.9838C5.81079 36.9525 5.78241 36.9233 5.76934 36.889C5.76529 36.8781 5.80043 36.8533 5.83376 36.8177C5.86079 36.869 5.88557 36.9003 5.89278 36.9351C5.89503 36.9473 5.85404 36.9677 5.83331 36.9838ZM5.39408 37.6195C5.372 37.6204 5.33056 37.5821 5.32921 37.56C5.32785 37.5347 5.35939 37.4921 5.38327 37.4873C5.40444 37.483 5.43507 37.5187 5.47742 37.5474C5.44138 37.5804 5.41885 37.6178 5.39408 37.6195ZM4.63769 35.4013C4.58768 35.3779 4.53813 35.3309 4.51741 35.2818C4.5093 35.2626 4.57867 35.1874 4.61652 35.1843C4.65616 35.1813 4.70031 35.2348 4.76923 35.2822C4.70842 35.3387 4.65346 35.4092 4.63769 35.4013ZM4.54894 36.1567C4.51741 36.1458 4.49488 36.1102 4.46875 36.0849C4.50119 36.0641 4.53182 36.0336 4.56696 36.0271C4.58228 36.0249 4.60751 36.071 4.64039 36.1093C4.60075 36.131 4.56741 36.1632 4.54894 36.1567ZM5.39092 35.4457C5.4112 35.4466 5.42922 35.4766 5.46255 35.5074C5.42336 35.5266 5.39813 35.5505 5.37966 35.5461C5.35984 35.5409 5.33371 35.5083 5.33596 35.4896C5.33776 35.4722 5.37245 35.4444 5.39092 35.4457ZM4.33856 33.4527C4.23674 33.4501 4.1962 33.3966 4.20791 33.3314C4.21512 33.294 4.27729 33.2666 4.31513 33.2344C4.33315 33.2471 4.35027 33.2597 4.36784 33.2723C4.35838 33.331 4.34892 33.3893 4.33856 33.4527ZM4.21918 35.2026C4.19845 35.1804 4.18449 35.15 4.17683 35.1204C4.17548 35.1156 4.22593 35.0856 4.23584 35.0922C4.25927 35.1074 4.27414 35.1374 4.30387 35.1765C4.26107 35.1904 4.22548 35.2096 4.21918 35.2026ZM4.12908 36.5785C4.12727 36.5807 4.08132 36.5528 4.08222 36.5507C4.09754 36.518 4.11691 36.4876 4.13583 36.4567C4.15611 36.4663 4.17638 36.4763 4.1971 36.4863C4.17503 36.5172 4.1543 36.5498 4.12908 36.5785ZM3.93491 35.4057C3.93671 35.38 3.98447 35.347 4.01735 35.3383C4.03492 35.3344 4.0651 35.3748 4.10159 35.4057C4.05925 35.4422 4.02951 35.4679 3.99978 35.4935C3.97636 35.464 3.93311 35.4331 3.93491 35.4057ZM3.77138 32.2469C3.85472 32.1543 3.9295 32.1221 4.02861 32.186C3.9232 32.3504 3.91779 32.3517 3.77138 32.2469ZM3.37179 35.42C3.34431 35.4131 3.32268 35.387 3.29881 35.3687C3.31592 35.35 3.33485 35.3148 3.35061 35.3157C3.37764 35.3178 3.40377 35.3418 3.44837 35.367C3.41098 35.3939 3.3871 35.4235 3.37179 35.42ZM3.36142 34.4168C3.44161 34.5221 3.43981 34.5264 3.29295 34.6177C3.24565 34.5247 3.31592 34.4781 3.36142 34.4168ZM3.26006 33.7906C3.17762 33.7215 3.11725 33.6824 3.07536 33.6297C3.05644 33.6063 3.06274 33.5497 3.07851 33.5184C3.09112 33.4949 3.14248 33.4706 3.16681 33.4771C3.2024 33.4875 3.24835 33.521 3.25601 33.5523C3.26997 33.6115 3.26006 33.6763 3.26006 33.7906ZM2.98165 33.2701C2.9803 33.2718 2.9312 33.2505 2.93165 33.2492C2.94561 33.2101 2.96318 33.1723 2.98075 33.1344C3.00012 33.1431 3.0204 33.1518 3.04067 33.161C3.02175 33.1979 3.00373 33.2349 2.98165 33.2701ZM3.22537 32.7057C3.2515 32.707 3.27628 32.7409 3.31998 32.7757C3.27538 32.7996 3.2452 32.8287 3.22312 32.8239C3.19699 32.8187 3.17807 32.7835 3.15555 32.7618C3.17897 32.7418 3.2033 32.7048 3.22537 32.7057ZM4.35162 32.7574C4.1944 32.8339 4.17367 32.8279 4.04258 32.6613C4.18854 32.6191 4.2899 32.6291 4.35162 32.7574ZM7.81236 37.867C7.8993 37.8683 7.9858 37.9666 7.98129 38.0592C7.97724 38.1518 7.88173 38.2427 7.79614 38.2353C7.70153 38.2275 7.61999 38.1366 7.6254 38.0457C7.63081 37.9548 7.72451 37.8657 7.81236 37.867ZM8.4854 39.0324C8.51919 38.9606 8.62461 38.9493 8.67732 38.888C8.7039 38.9606 8.70525 39.0102 8.67371 39.0476L9.01069 39.0759L9.18368 37.1425L7.71955 37.0207C7.38979 36.8438 6.68025 36.4241 6.01802 35.7766C6.01622 35.7766 6.01396 35.7775 6.01216 35.7775C5.99414 35.7762 5.96306 35.7453 5.96441 35.7297C5.96486 35.7283 5.96576 35.7266 5.96621 35.7249C5.1873 34.9465 4.49218 33.8498 4.57642 32.4561C4.50299 32.4313 4.44893 32.366 4.44938 32.293C4.45028 32.2073 4.50885 32.1521 4.60075 32.139V32.1382L2.85957 31.9934C2.85281 32.0025 2.8465 32.0112 2.84155 32.019C2.7938 32.0147 2.76181 32.0016 2.74019 31.9838L2.59287 31.9712L2.57485 32.1747C2.38249 34.3242 3.3853 35.9432 4.48497 37.0486C4.49263 37.0464 4.50074 37.0434 4.50749 37.0416C4.53498 37.0351 4.60525 37.079 4.60525 37.1003C4.60525 37.1199 4.60345 37.1412 4.6003 37.1621C5.72069 38.2457 6.901 38.8023 7.00191 38.8489C7.11228 38.8976 7.22671 38.9272 7.34159 38.9367L8.4854 39.0324Z" fill="#3BB4B4"/>
<path d="M29.0817 34.5084V23.0753L31.7863 28.3527V34.5084H29.0817ZM35.8464 34.5084L29.0817 21.314H31.7863L36.0709 29.6725V21.314H38.7756V34.5084H35.8464Z" fill="#3BB4B4"/>
<path d="M45.8166 31.8701H51.0204V34.5079H45.8166V31.8701ZM45.8166 26.5927H49.2855V29.2314H45.8166V26.5927ZM45.8166 21.314H51.0204V23.9553H45.8166V21.314ZM42.3469 21.314H44.9483V34.5084H42.3469V21.314Z" fill="#3BB4B4"/>
<path d="M60.6628 34.5084V29.6725L60.2282 29.2318H58.0617V26.5931H60.2282L60.6628 26.1525V24.3933L60.2282 23.9553H58.0617V21.314H61.5308L63.2653 23.0753V27.4727H63.2627L62.8333 27.9107L63.2653 28.3527V34.5084H60.6628ZM54.5918 21.314H57.1934V34.5084H54.5918V21.314Z" fill="#3BB4B4"/>
<path d="M70.3061 34.5084V31.8705H72.4731L72.9073 31.4325V24.3933L72.4731 23.9553H70.3061V21.314H73.7752L75.5101 23.0753V32.7492L73.7752 34.5084H70.3061ZM66.8367 21.314H69.4382V34.5084H66.8367V21.314Z" fill="#3BB4B4"/>
<path d="M82.0409 34.5084V31.8705H84.2079L84.6421 31.4325V29.6725L84.2079 29.2318H82.0409V26.5931H84.2079L84.6421 26.1525V24.3933L84.2079 23.9553H82.0409V21.314H85.51L87.2449 23.0753V27.4727H87.2419L86.8129 27.9107L87.2449 28.3527V32.7492L85.51 34.5084H82.0409ZM78.5714 21.314H81.173V34.5084H78.5714V21.314Z" fill="#3BB4B4"/>
<path d="M95.5856 34.5084V31.8705H96.4527L96.8873 31.4325V21.314H99.4898V32.7492L97.7548 34.5084H95.5856ZM92.551 34.5084L90.8164 32.7492V21.314H93.4177V31.4325L93.8497 31.8705H94.7176V34.5084H92.551Z" fill="#3BB4B4"/>
<path d="M103.061 34.5084V23.0753L105.623 28.3527V34.5084H103.061ZM109.47 34.5084L103.061 21.314H105.623L109.683 29.6725V21.314H112.245V34.5084H109.47Z" fill="#3BB4B4"/>
<path d="M122.887 34.5084L119.825 28.3527V27.4727L122.887 21.314H125.51L122.23 27.9107L125.51 34.5084H122.887ZM116.326 21.314H118.949V34.5084H116.326V21.314Z" fill="#3BB4B4"/>
<path d="M132.551 31.8701H137.755V34.5079H132.551V31.8701ZM132.551 26.5927H136.02V29.2314H132.551V26.5927ZM132.551 21.314H137.755V23.9553H132.551V21.314ZM129.082 21.314H131.683V34.5084H129.082V21.314Z" fill="#3BB4B4"/>
<path d="M147.398 34.5084V29.6725L146.963 29.2318H144.796V26.5931H146.963L147.398 26.1525V24.3933L146.963 23.9553H144.796V21.314H148.265L150 23.0753V27.4727H149.997L149.568 27.9107L150 28.3527V34.5084H147.398ZM141.327 21.314H143.928V34.5084H141.327V21.314Z" fill="#3BB4B4"/>
</svg>
